<?xml version="1.0" encoding="utf-8"?>
<!-- Generator: Adobe Illustrator 27.5.0, SVG Export Plug-In . SVG Version: 6.00 Build 0)  -->
<svg version="1.1" xmlns="http://www.w3.org/2000/svg" xmlns:xlink="http://www.w3.org/1999/xlink" x="0px" y="0px"
	 viewBox="0 0 500 500" style="enable-background:new 0 0 500 500;" xml:space="preserve">
<g id="Background_Complete">
	<g>
		<g>
			<g>
				<g>
					<path style="fill:#EBEBEB;" d="M52.928,237.072l1.888,34.722c0.067,1.237,1.085,2.208,2.324,2.217l62.481,0.458
						c1.295,0.01,2.352-1.032,2.361-2.327l0.198-27.028c0.009-1.301-1.041-2.36-2.342-2.361l-38.427-0.034
						c-0.621-0.001-1.216-0.247-1.655-0.686l-6.63-6.627c-0.435-0.435-1.024-0.682-1.64-0.686L55.286,234.6
						C53.935,234.591,52.855,235.722,52.928,237.072z"/>
				</g>
			</g>
		</g>
		<g>
			<g>
				<g>
					
						<rect x="53.809" y="238.418" transform="matrix(1 0.0073 -0.0073 1 1.899 -0.6375)" style="fill:#F5F5F5;" width="68.27" height="40.795"/>
				</g>
			</g>
		</g>
		<g>
			<g>
				<g>
					<path style="fill:#EBEBEB;" d="M48.502,241.789l4.901,42.579c0.087,0.757,0.725,1.329,1.486,1.335l66.531,0.487
						c0.787,0.006,1.446-0.594,1.513-1.378l3.661-42.516c0.075-0.876-0.612-1.63-1.491-1.637l-75.093-0.55
						C49.105,240.102,48.398,240.889,48.502,241.789z"/>
				</g>
			</g>
		</g>
	</g>
	<g>
		<g>
			<g>
				<g>
					<path style="fill:#EBEBEB;" d="M336.6,243.067l1.625,29.898c0.058,1.065,0.934,1.901,2.001,1.909l53.8,0.394
						c1.115,0.008,2.025-0.889,2.033-2.004l0.17-23.273c0.008-1.12-0.897-2.032-2.017-2.033l-33.088-0.029
						c-0.535-0.001-1.047-0.213-1.425-0.591l-5.709-5.706c-0.375-0.375-0.882-0.587-1.412-0.591l-13.948-0.102
						C337.467,240.93,336.537,241.905,336.6,243.067z"/>
				</g>
			</g>
		</g>
		<g>
			<g>
				<g>
					
						<rect x="337.359" y="244.226" transform="matrix(1 0.0073 -0.0073 1 1.9279 -2.6801)" style="fill:#F5F5F5;" width="58.785" height="35.127"/>
				</g>
			</g>
		</g>
		<g>
			<g>
				<g>
					<path style="fill:#EBEBEB;" d="M332.789,247.128l4.22,36.663c0.075,0.652,0.624,1.145,1.28,1.15l57.288,0.42
						c0.677,0.005,1.245-0.512,1.303-1.187l3.153-36.609c0.065-0.754-0.527-1.404-1.284-1.409l-64.66-0.474
						C333.309,245.676,332.7,246.354,332.789,247.128z"/>
				</g>
			</g>
		</g>
	</g>
	<g>
		<g>
			<g>
				<g>
					<rect x="348.409" y="47.144" style="fill:#E0E0E0;" width="95.608" height="158.259"/>
				</g>
			</g>
		</g>
		<g>
			<g>
				<g>
					<rect x="345.23" y="47.144" style="fill:#EBEBEB;" width="95.608" height="158.259"/>
				</g>
			</g>
		</g>
		<g>
			<g>
				<g>
					<rect x="349.301" y="50.354" style="fill:#FFFFFF;" width="87.466" height="151.84"/>
				</g>
			</g>
		</g>
		<g>
			<g>
				<g>
					<g>
						<rect x="365.952" y="70.084" style="fill:#EBEBEB;" width="53.784" height="112.379"/>
					</g>
				</g>
			</g>
			<g>
				<g>
					<g>
						<path style="fill:#E0E0E0;" d="M365.952,142.696c-0.124-10.498,9.314-20.746,19.71-22.212
							c4.957-0.699,10.224,0.285,14.856-1.614c8.267-3.39,10.898-14.375,19.219-17.633l0.38,81.226h-54.164V142.696z"/>
					</g>
				</g>
			</g>
		</g>
	</g>
	<g>
		<g>
			<g>
				<g>
					<g>
						<path style="fill:#EBEBEB;" d="M438.493,249.903c0,0-7.919-0.57-7.19,17.194c0.729,17.764,2.541,27.226,2.541,27.226
							s-0.233,3.939-3.283,3.166c-3.051-0.773-8.789-4.606-11.623-1.741c-2.939,2.972-1.894,7.53,2.005,12.899
							c3.899,5.369,12.009,17.445,12.739,18.539c0.716,1.075,1.003,3.09-1.159,2.896c-2.163-0.194-16.758-5.141-18.691,1.926
							c-1.933,7.066,11.387,20.238,12.815,21.706c1.428,1.468,1.505,2.395,0.926,3.283c-0.58,0.888-5.329-1.237-9.538-2.474
							c-4.209-1.237-9.306-1.933-10.08,2.237c-0.773,4.17,5.093,16.375,27.063,29.202l10.569,5.277l10.004-6.381
							c20.576-14.96,25.193-27.69,24.006-31.762c-1.187-4.072-6.189-2.869-10.253-1.218c-4.064,1.652-8.577,4.241-9.242,3.416
							c-0.665-0.826-0.681-1.755,0.593-3.359c1.275-1.603,13.21-16.042,10.58-22.879c-2.63-6.838-16.658-0.455-18.79-0.046
							c-2.133,0.409-2.048-1.625-1.443-2.766c0.616-1.162,7.478-13.989,10.82-19.721c3.342-5.732,3.926-10.371,0.704-13.034
							c-3.107-2.568-8.433,1.82-11.391,2.895c-2.958,1.074-3.583-2.821-3.583-2.821s0.857-9.595-0.195-27.343
							c-1.052-17.748-9.064-16.315-9.064-16.315"/>
					</g>
				</g>
			</g>
			<g>
				<g>
					<g>
						<g>
							<path style="fill:#E0E0E0;" d="M439.119,265.813c0,0,0.021,0.125,0.043,0.371c0.02,0.263,0.048,0.625,0.084,1.09
								c0.066,0.978,0.162,2.388,0.285,4.195c0.242,3.643,0.554,8.918,0.914,15.436c0.725,13.037,1.571,31.055,2.441,50.957
								c0.869,19.909,1.671,37.928,2.323,50.968c0.331,6.506,0.599,11.777,0.785,15.441c0.09,1.809,0.16,3.22,0.209,4.199
								c0.019,0.466,0.033,0.829,0.044,1.092c0.008,0.246,0.001,0.373,0.001,0.373s-0.021-0.125-0.042-0.371
								c-0.02-0.263-0.048-0.625-0.084-1.09c-0.066-0.978-0.162-2.388-0.284-4.194c-0.243-3.643-0.554-8.917-0.914-15.435
								c-0.725-13.037-1.571-31.057-2.441-50.965c-0.869-19.902-1.671-37.92-2.322-50.959c-0.331-6.506-0.599-11.777-0.786-15.442
								c-0.09-1.809-0.16-3.22-0.209-4.199c-0.019-0.466-0.034-0.829-0.044-1.093C439.112,265.94,439.119,265.813,439.119,265.813z"
								/>
						</g>
					</g>
				</g>
			</g>
			<g>
				<g>
					<g>
						<g>
							<path style="fill:#E0E0E0;" d="M426.75,301.433c0.02-0.02,0.253,0.176,0.658,0.547c0.407,0.369,0.978,0.922,1.677,1.611
								c1.395,1.382,3.271,3.341,5.3,5.541c1.986,2.172,3.781,4.136,5.169,5.656c0.617,0.669,1.142,1.238,1.573,1.706
								c0.373,0.402,0.57,0.634,0.551,0.654c-0.019,0.02-0.254-0.174-0.662-0.542c-0.406-0.371-0.977-0.923-1.669-1.62
								c-1.382-1.396-3.231-3.378-5.26-5.579c-2-2.157-3.809-4.107-5.208-5.616c-0.621-0.666-1.149-1.233-1.583-1.699
								C426.926,301.687,426.73,301.453,426.75,301.433z"/>
						</g>
					</g>
				</g>
			</g>
			<g>
				<g>
					<g>
						<g>
							<path style="fill:#E0E0E0;" d="M442.726,316.8c-0.08-0.079,3.786-4.126,8.632-9.04c4.848-4.915,8.842-8.835,8.921-8.757
								c0.079,0.078-3.785,4.125-8.633,9.041C446.8,312.958,442.805,316.878,442.726,316.8z"/>
						</g>
					</g>
				</g>
			</g>
			<g>
				<g>
					<g>
						<g>
							<path style="fill:#E0E0E0;" d="M442.682,347.427c-0.013-0.025,0.25-0.191,0.737-0.469c0.564-0.317,1.255-0.704,2.067-1.16
								c1.744-0.98,4.149-2.342,6.748-3.94c2.604-1.592,4.911-3.114,6.573-4.227c0.775-0.517,1.434-0.956,1.972-1.315
								c0.468-0.308,0.735-0.467,0.751-0.445c0.016,0.023-0.219,0.225-0.659,0.572c-0.441,0.347-1.088,0.836-1.901,1.423
								c-1.624,1.176-3.913,2.74-6.525,4.337c-2.607,1.603-5.042,2.929-6.824,3.847c-0.893,0.455-1.62,0.815-2.13,1.048
								C442.982,347.334,442.695,347.452,442.682,347.427z"/>
						</g>
					</g>
				</g>
			</g>
			<g>
				<g>
					<g>
						<g>
							<path style="fill:#E0E0E0;" d="M425.173,336.709c0.014-0.024,0.274,0.099,0.731,0.343c0.457,0.244,1.112,0.608,1.916,1.065
								c1.609,0.914,3.818,2.201,6.244,3.644c2.427,1.443,4.613,2.77,6.184,3.747c0.786,0.489,1.418,0.89,1.85,1.175
								c0.432,0.285,0.664,0.454,0.65,0.478c-0.014,0.024-0.274-0.099-0.731-0.343c-0.457-0.244-1.112-0.608-1.916-1.065
								c-1.609-0.914-3.818-2.202-6.245-3.645c-2.426-1.443-4.612-2.769-6.183-3.746c-0.786-0.489-1.418-0.89-1.85-1.175
								C425.391,336.902,425.158,336.733,425.173,336.709z"/>
						</g>
					</g>
				</g>
			</g>
			<g>
				<g>
					<g>
						<g>
							<path style="fill:#E0E0E0;" d="M421.699,363.743c0.014-0.024,0.344,0.137,0.93,0.45c0.651,0.359,1.476,0.814,2.46,1.357
								c2.068,1.161,4.911,2.789,8.039,4.609c3.128,1.82,5.949,3.488,7.98,4.712c0.958,0.587,1.761,1.079,2.395,1.468
								c0.561,0.354,0.864,0.562,0.85,0.586c-0.014,0.024-0.344-0.137-0.93-0.45c-0.651-0.359-1.476-0.814-2.46-1.357
								c-2.068-1.161-4.911-2.789-8.04-4.609c-3.127-1.82-5.948-3.487-7.979-4.711c-0.958-0.587-1.761-1.079-2.395-1.468
								C421.989,363.974,421.685,363.767,421.699,363.743z"/>
						</g>
					</g>
				</g>
			</g>
			<g>
				<g>
					<g>
						<g>
							<path style="fill:#E0E0E0;" d="M443.9,376.456c-0.014-0.024,0.314-0.242,0.919-0.616c0.672-0.409,1.535-0.935,2.569-1.564
								c2.168-1.321,5.157-3.156,8.4-5.272c3.248-2.112,6.138-4.099,8.221-5.55c0.994-0.691,1.824-1.267,2.47-1.716
								c0.586-0.402,0.917-0.614,0.934-0.592c0.017,0.022-0.283,0.277-0.841,0.719c-0.557,0.442-1.374,1.067-2.397,1.822
								c-2.043,1.513-4.913,3.541-8.167,5.657c-3.249,2.12-6.268,3.919-8.476,5.179c-1.106,0.627-2.006,1.125-2.636,1.454
								C444.268,376.309,443.914,376.481,443.9,376.456z"/>
						</g>
					</g>
				</g>
			</g>
		</g>
		<g>
			<g>
				<g>
					<g>
						<g>
							<polygon style="fill:#E0E0E0;" points="459.785,394.697 430.545,394.697 440.089,466.938 450.242,466.938 							"/>
						</g>
					</g>
				</g>
			</g>
			<g>
				<g>
					<g>
						<g>
							<g>
								<path style="fill:#F5F5F5;" d="M432.063,403.577c-0.011,0.007,0.032,0.102,0.156,0.257c0.124,0.153,0.354,0.353,0.705,0.505
									c0.693,0.302,1.911,0.326,3.088-0.379c1.181-0.651,2.209-1.931,3.792-2.496c1.569-0.599,3.513-0.492,5.377,0.107
									c1.885,0.583,3.523,1.537,5.007,2.426c1.487,0.885,2.849,1.674,4.072,2.185c1.213,0.53,2.271,0.774,3.003,0.868
									c0.367,0.049,0.653,0.063,0.848,0.057c0.194,0,0.296-0.008,0.297-0.025c0.017-0.095-1.655-0.081-4.011-1.209
									c-1.18-0.54-2.507-1.347-3.982-2.253c-1.468-0.906-3.145-1.903-5.092-2.505c-1.924-0.619-3.992-0.731-5.675-0.062
									c-0.841,0.32-1.547,0.823-2.136,1.321c-0.597,0.494-1.132,0.959-1.674,1.297c-1.069,0.691-2.193,0.72-2.848,0.494
									C432.316,403.931,432.1,403.536,432.063,403.577z"/>
							</g>
						</g>
					</g>
				</g>
			</g>
			<g>
				<g>
					<g>
						<g>
							<g>
								<path style="fill:#F5F5F5;" d="M433.13,416.882c0.039,0.024,0.232-0.298,0.689-0.775c0.465-0.464,1.228-1.071,2.335-1.481
									c1.097-0.421,2.507-0.671,4.066-0.612c1.566,0.054,3.273,0.398,5.088,0.693c1.812,0.305,3.607,0.441,5.21,0.216
									c1.603-0.206,2.995-0.667,4.099-1.17c1.107-0.505,1.927-1.058,2.465-1.465c0.54-0.409,0.797-0.684,0.781-0.703
									c-0.055-0.079-1.184,0.932-3.381,1.859c-1.096,0.452-2.46,0.868-4.017,1.043c-1.557,0.193-3.281,0.051-5.082-0.251
									c-1.8-0.292-3.534-0.63-5.15-0.661c-1.618-0.036-3.077,0.258-4.206,0.739c-1.139,0.469-1.909,1.151-2.346,1.669
									c-0.211,0.27-0.364,0.486-0.442,0.648C433.153,416.788,433.116,416.874,433.13,416.882z"/>
							</g>
						</g>
					</g>
				</g>
			</g>
			<g>
				<g>
					<g>
						<g>
							<g>
								<path style="fill:#F5F5F5;" d="M456.473,424.005c0.011-0.022-0.26-0.204-0.806-0.418c-0.544-0.215-1.375-0.436-2.423-0.52
									c-1.047-0.083-2.302-0.016-3.664,0.21c-1.364,0.221-2.825,0.598-4.361,0.924c-1.534,0.323-3.014,0.541-4.354,0.492
									c-1.34-0.047-2.532-0.34-3.457-0.748c-1.882-0.826-2.552-2.028-2.622-1.952c-0.018,0.011,0.115,0.312,0.495,0.763
									c0.377,0.45,1.035,1.025,1.985,1.495c0.949,0.467,2.185,0.808,3.58,0.881c1.398,0.076,2.92-0.137,4.472-0.464
									c1.552-0.33,3.003-0.717,4.337-0.957c1.333-0.245,2.551-0.344,3.57-0.306C455.277,423.472,456.443,424.093,456.473,424.005z
									"/>
							</g>
						</g>
					</g>
				</g>
			</g>
			<g>
				<g>
					<g>
						<g>
							<g>
								<path style="fill:#F5F5F5;" d="M435.713,434.024c0.014,0.077,1.044-0.651,2.839-0.286c0.88,0.159,1.864,0.605,2.97,1.107
									c1.102,0.514,2.43,0.953,3.855,1.063c2.873,0.276,5.428-0.652,6.995-1.621c0.803-0.476,1.362-0.988,1.741-1.339
									c0.356-0.379,0.538-0.597,0.515-0.619c-0.064-0.07-0.832,0.794-2.425,1.666c-1.565,0.867-4.032,1.703-6.783,1.438
									c-2.768-0.158-4.893-1.809-6.812-2.027c-0.936-0.14-1.718-0.006-2.206,0.191
									C435.908,433.789,435.699,434.007,435.713,434.024z"/>
							</g>
						</g>
					</g>
				</g>
			</g>
			<g>
				<g>
					<g>
						<g>
							<g>
								<path style="fill:#F5F5F5;" d="M437.342,447.89c0,0.055,0.981,0.048,2.438-0.484c1.47-0.491,3.289-1.618,5.414-2.462
									c1.066-0.406,2.135-0.656,3.107-0.651c0.973,0.005,1.841,0.242,2.498,0.57c1.343,0.669,1.732,1.619,1.806,1.559
									c0.021-0.009-0.038-0.248-0.277-0.616c-0.236-0.367-0.684-0.846-1.37-1.24c-0.684-0.391-1.605-0.682-2.651-0.712
									c-1.049-0.031-2.179,0.224-3.283,0.645c-2.202,0.878-3.963,2.037-5.367,2.594C438.27,447.69,437.331,447.814,437.342,447.89
									z"/>
							</g>
						</g>
					</g>
				</g>
			</g>
			<g>
				<g>
					<g>
						<g>
							<g>
								<path style="fill:#F5F5F5;" d="M438.776,454.341c-0.016,0.06,0.685,0.312,1.851,0.601c1.165,0.29,2.801,0.599,4.628,0.78
									c1.827,0.178,3.492,0.193,4.692,0.136c1.201-0.056,1.936-0.167,1.933-0.229c-0.007-0.144-2.963-0.018-6.578-0.382
									C441.686,454.901,438.811,454.202,438.776,454.341z"/>
							</g>
						</g>
					</g>
				</g>
			</g>
		</g>
	</g>
	<g>
		<g>
			<g>
				<g>
					<rect x="37.946" y="64.459" style="fill:#E0E0E0;" width="95.566" height="138.519"/>
				</g>
			</g>
		</g>
		<g>
			<g>
				<g>
					<rect x="33.159" y="64.459" style="fill:#F5F5F5;" width="95.566" height="138.519"/>
				</g>
			</g>
		</g>
		<g>
			<g>
				<g>
					<g>
						<rect x="45.032" y="79.462" style="fill:#FFFFFF;" width="71.82" height="108.514"/>
					</g>
				</g>
			</g>
			<g>
				<g>
					<g>
						<g>
							<path style="fill:#E0E0E0;" d="M116.852,187.976c0,0-0.009-0.184-0.014-0.531c-0.003-0.358-0.008-0.87-0.014-1.539
								c-0.007-1.364-0.016-3.36-0.029-5.952c-0.015-5.201-0.037-12.78-0.064-22.353c-0.029-19.135-0.069-46.231-0.117-78.139
								l0.238,0.238c-21.942,0.007-46.256,0.014-71.811,0.021h-0.009l0.26-0.26c-0.02,40.936-0.038,78.679-0.053,108.514
								l-0.207-0.207c21.872,0.046,39.8,0.083,52.275,0.109c6.24,0.023,11.114,0.041,14.442,0.053
								c1.654,0.01,2.922,0.018,3.791,0.023C116.399,187.961,116.852,187.976,116.852,187.976s-0.423,0.015-1.267,0.022
								c-0.86,0.005-2.115,0.013-3.752,0.023c-3.318,0.012-8.176,0.03-14.396,0.053c-12.506,0.026-30.478,0.063-52.404,0.109
								l-0.207,0l0-0.208c-0.015-29.835-0.033-67.578-0.053-108.514l0-0.26h0.26h0.009c25.555,0.008,49.869,0.015,71.811,0.021
								l0.239,0l0,0.238c-0.048,31.973-0.089,59.123-0.117,78.296c-0.027,9.551-0.049,17.111-0.064,22.299
								c-0.012,2.571-0.022,4.551-0.029,5.904c-0.006,0.658-0.011,1.16-0.014,1.512
								C116.861,187.811,116.852,187.976,116.852,187.976z"/>
						</g>
					</g>
				</g>
			</g>
		</g>
		<g>
			<g>
				<g>
					<g>
						<path style="fill:none;stroke:#FBFBFB;stroke-width:0.25;stroke-miterlimit:10;" d="M113.522,80.186"/>
					</g>
				</g>
			</g>
		</g>
		<g>
			<g>
				<g>
					<g>
						<path style="fill:#E0E0E0;" d="M128.993,64.459c0.056,0.043-0.593,0.99-1.703,2.475c-1.11,1.485-2.686,3.504-4.484,5.688
							c-1.799,2.184-3.479,4.117-4.724,5.491c-1.244,1.374-2.049,2.192-2.103,2.146c-0.055-0.048,0.652-0.951,1.824-2.386
							c1.281-1.554,2.858-3.467,4.601-5.582c1.742-2.116,3.316-4.029,4.597-5.585C128.184,65.282,128.936,64.415,128.993,64.459z"/>
					</g>
				</g>
			</g>
		</g>
		<g>
			<g>
				<g>
					<g>
						<path style="fill:#FFFFFF;" d="M117.217,187.627c3.567,5.672,7.778,10.939,12.527,15.666"/>
					</g>
				</g>
			</g>
			<g>
				<g>
					<g>
						<g>
							<path style="fill:#E0E0E0;" d="M129.744,203.293c-0.047,0.048-0.9-0.692-2.184-1.987c-1.284-1.294-2.986-3.156-4.725-5.329
								c-1.738-2.176-3.181-4.245-4.16-5.783c-0.98-1.537-1.514-2.532-1.458-2.567c0.065-0.041,0.708,0.883,1.762,2.361
								c1.053,1.479,2.534,3.501,4.262,5.664c1.729,2.16,3.376,4.049,4.587,5.402C129.038,202.408,129.798,203.238,129.744,203.293z
								"/>
						</g>
					</g>
				</g>
			</g>
		</g>
		<g>
			<g>
				<g>
					<g>
						<path style="fill:#FFFFFF;" d="M33.145,202.869c4.173-5.148,8.345-10.296,12.518-15.444"/>
					</g>
				</g>
			</g>
			<g>
				<g>
					<g>
						<g>
							<path style="fill:#E0E0E0;" d="M45.663,187.425c0.111,0.09-2.601,3.621-6.057,7.885c-3.457,4.266-6.35,7.649-6.461,7.559
								c-0.111-0.09,2.6-3.62,6.057-7.886C42.658,190.719,45.551,187.334,45.663,187.425z"/>
						</g>
					</g>
				</g>
			</g>
		</g>
		<g>
			<g>
				<g>
					<g>
						<path style="fill:#E0E0E0;" d="M33.159,64.459c0.113-0.089,2.833,3.163,6.076,7.263c3.244,4.101,5.781,7.497,5.668,7.586
							c-0.113,0.089-2.833-3.162-6.076-7.264C35.584,67.945,33.046,64.548,33.159,64.459z"/>
					</g>
				</g>
			</g>
		</g>
		<g>
			<g>
				<g>
					<rect x="70.428" y="101.495" style="fill:#E0E0E0;" width="24.048" height="68.279"/>
				</g>
			</g>
		</g>
	</g>
	<g>
		<g>
			<g>
				<g>
					<g>
						<g>
							<g>
								<g>
									<g>
										<g>
											<g>
												<rect x="178.18" y="41.294" style="fill:#E0E0E0;" width="75.114" height="78.3"/>
											</g>
										</g>
									</g>
								</g>
							</g>
						</g>
					</g>
				</g>
			</g>
		</g>
		<g>
			<g>
				<g>
					<g>
						<g>
							<g>
								<g>
									<g>
										<g>
											<g>
												<rect x="173.094" y="41.294" style="fill:#FAFAFA;" width="75.114" height="78.3"/>
											</g>
										</g>
									</g>
								</g>
							</g>
						</g>
					</g>
				</g>
			</g>
			<g>
				<g>
					<g>
						<g>
							<g>
								<g>
									<g>
										<g>
											<g>
												<path style="fill:#E0E0E0;" d="M248.231,119.618H173.07V41.271h75.161V119.618z M173.117,119.571h75.067V41.317h-75.067
													V119.571z"/>
											</g>
										</g>
									</g>
								</g>
							</g>
						</g>
					</g>
				</g>
			</g>
		</g>
		<g>
			<g>
				<g>
					<g>
						<g>
							<g>
								<g>
									<g>
										<g>
											<g>
												<rect x="183.191" y="51.82" style="fill:#FFFFFF;" width="54.919" height="57.248"/>
											</g>
										</g>
									</g>
								</g>
							</g>
						</g>
					</g>
				</g>
			</g>
		</g>
		<g>
			<g>
				<g>
					<g>
						<g>
							<g>
								<g>
									<g>
										<g>
											<g>
												<g>
													<path style="fill:#E0E0E0;" d="M183.191,109.449c0.043,0.051-0.478,0.65-1.355,1.576
														c-0.877,0.925-2.109,2.178-3.491,3.539c-1.382,1.361-2.652,2.574-3.588,3.434c-0.936,0.86-1.54,1.37-1.587,1.322
														c-0.047-0.048,0.471-0.644,1.348-1.569c0.877-0.925,2.113-2.181,3.499-3.546c1.386-1.365,2.658-2.58,3.594-3.44
														C182.547,109.904,183.148,109.398,183.191,109.449z"/>
												</g>
											</g>
										</g>
									</g>
								</g>
							</g>
						</g>
					</g>
				</g>
			</g>
		</g>
		<g>
			<g>
				<g>
					<g>
						<g>
							<g>
								<g>
									<g>
										<g>
											<g>
												<g>
													<path style="fill:#E0E0E0;" d="M238.11,109.309c0.051-0.043,0.65,0.478,1.576,1.355
														c0.925,0.877,2.178,2.11,3.539,3.491c1.361,1.382,2.574,2.652,3.434,3.588c0.861,0.937,1.37,1.54,1.322,1.587
														c-0.048,0.047-0.644-0.471-1.569-1.348c-0.925-0.877-2.181-2.113-3.546-3.499c-1.364-1.385-2.58-2.658-3.44-3.594
														C238.565,109.952,238.059,109.352,238.11,109.309z"/>
												</g>
											</g>
										</g>
									</g>
								</g>
							</g>
						</g>
					</g>
				</g>
			</g>
		</g>
		<g>
			<g>
				<g>
					<g>
						<g>
							<g>
								<g>
									<g>
										<g>
											<g>
												<g>
													<path style="fill:#E0E0E0;" d="M237.96,51.973c-0.043-0.051,0.478-0.65,1.355-1.576
														c0.877-0.926,2.109-2.178,3.491-3.539c1.382-1.362,2.652-2.574,3.588-3.435c0.937-0.861,1.54-1.37,1.587-1.322
														c0.047,0.048-0.471,0.643-1.348,1.569c-0.877,0.925-2.113,2.181-3.499,3.546c-1.385,1.365-2.658,2.58-3.595,3.44
														C238.604,51.518,238.003,52.024,237.96,51.973z"/>
												</g>
											</g>
										</g>
									</g>
								</g>
							</g>
						</g>
					</g>
				</g>
			</g>
		</g>
		<g>
			<g>
				<g>
					<g>
						<g>
							<g>
								<g>
									<g>
										<g>
											<g>
												<g>
													<path style="fill:#E0E0E0;" d="M183.041,52.113c-0.051,0.043-0.65-0.478-1.576-1.355
														c-0.926-0.877-2.178-2.11-3.539-3.491c-1.361-1.382-2.574-2.652-3.434-3.588c-0.861-0.937-1.37-1.54-1.322-1.587
														c0.048-0.048,0.643,0.471,1.569,1.348c0.926,0.877,2.181,2.113,3.546,3.499c1.365,1.386,2.58,2.658,3.44,3.595
														C182.586,51.47,183.092,52.07,183.041,52.113z"/>
												</g>
											</g>
										</g>
									</g>
								</g>
							</g>
						</g>
					</g>
				</g>
			</g>
		</g>
		<g>
			<g>
				<g>
					<g>
						<g>
							<g>
								<g>
									<g>
										<g>
											<g>
												<g>
													<path style="fill:#E0E0E0;" d="M237.96,109.068c-0.004-0.004-0.008-0.098-0.012-0.278
														c-0.003-0.195-0.007-0.458-0.012-0.799c-0.006-0.718-0.014-1.75-0.025-3.09c-0.013-2.712-0.032-6.658-0.055-11.668
														c-0.026-10.027-0.063-24.311-0.108-41.413l0.212,0.212c-15.988,0.009-34.763,0.02-54.763,0.031h-0.005l0.243-0.243
														c-0.013,21.012-0.024,40.67-0.034,57.248l-0.209-0.208c16.412,0.044,30.076,0.081,39.656,0.106
														c4.786,0.023,8.552,0.042,11.139,0.054c1.278,0.011,2.262,0.019,2.947,0.024c0.324,0.005,0.575,0.009,0.761,0.012
														C237.867,109.061,237.956,109.064,237.96,109.068c0.004,0.004-0.078,0.008-0.242,0.012
														c-0.181,0.003-0.425,0.007-0.739,0.012c-0.676,0.006-1.646,0.014-2.907,0.024c-2.576,0.013-6.325,0.031-11.092,0.055
														c-9.612,0.026-23.322,0.063-39.789,0.107l-0.208,0.001l0-0.21c-0.01-16.578-0.022-36.236-0.035-57.248l0-0.243h0.243
														h0.005c20,0.011,38.776,0.022,54.763,0.031h0.212l0,0.212c-0.045,17.159-0.082,31.49-0.108,41.549
														c-0.024,4.99-0.043,8.919-0.056,11.62c-0.011,1.323-0.019,2.341-0.025,3.05c-0.005,0.331-0.009,0.586-0.012,0.776
														C237.968,108.987,237.964,109.073,237.96,109.068z"/>
												</g>
											</g>
										</g>
									</g>
								</g>
							</g>
						</g>
					</g>
				</g>
			</g>
		</g>
		<g>
			<g>
				<g>
					<g>
						<g>
							<g>
								<g>
									<g>
										<g>
											<g>
												<rect x="201.488" y="71.281" style="fill:#EBEBEB;" width="18.326" height="18.326"/>
											</g>
										</g>
									</g>
								</g>
							</g>
						</g>
					</g>
				</g>
			</g>
		</g>
	</g>
	<g>
		<g>
			<g>
				<g>
					<path style="fill:#EBEBEB;" d="M138.938,357.902l1.877,34.53c0.067,1.23,1.079,2.196,2.311,2.205l62.135,0.455
						c1.288,0.01,2.339-1.027,2.348-2.314l0.197-26.878c0.009-1.293-1.036-2.347-2.329-2.349l-38.215-0.034
						c-0.617-0.001-1.209-0.246-1.646-0.682l-6.594-6.591c-0.433-0.433-1.019-0.678-1.631-0.682l-16.11-0.118
						C139.939,355.434,138.865,356.56,138.938,357.902z"/>
				</g>
			</g>
		</g>
		<g>
			<g>
				<g>
					
						<rect x="139.814" y="359.24" transform="matrix(1 0.0073 -0.0073 1 2.7857 -1.2631)" style="fill:#F5F5F5;" width="67.892" height="40.569"/>
				</g>
			</g>
		</g>
		<g>
			<g>
				<g>
					<path style="fill:#EBEBEB;" d="M134.536,362.592l4.874,42.343c0.087,0.753,0.721,1.322,1.478,1.328l66.163,0.485
						c0.782,0.006,1.437-0.591,1.505-1.371l3.641-42.281c0.075-0.871-0.608-1.621-1.483-1.628l-74.678-0.547
						C135.136,360.915,134.433,361.698,134.536,362.592z"/>
				</g>
			</g>
		</g>
	</g>
	<g>
		<g>
			<g>
				<g>
					<path style="fill:#EBEBEB;" d="M246.887,377.354l1.881,34.606c0.067,1.233,1.081,2.2,2.316,2.21l62.271,0.456
						c1.29,0.009,2.344-1.029,2.353-2.319l0.197-26.937c0.01-1.296-1.038-2.353-2.334-2.354l-38.298-0.034
						c-0.619-0.001-1.212-0.247-1.65-0.684l-6.608-6.605c-0.434-0.434-1.021-0.679-1.635-0.684l-16.145-0.118
						C247.89,374.881,246.813,376.009,246.887,377.354z"/>
				</g>
			</g>
		</g>
		<g>
			<g>
				<g>
					
						<rect x="247.764" y="378.695" transform="matrix(1 0.0073 -0.0073 1 2.9316 -2.0542)" style="fill:#F5F5F5;" width="68.04" height="40.658"/>
				</g>
			</g>
		</g>
		<g>
			<g>
				<g>
					<path style="fill:#EBEBEB;" d="M242.475,382.055l4.884,42.436c0.087,0.754,0.722,1.325,1.482,1.331l66.308,0.486
						c0.784,0.006,1.44-0.592,1.508-1.374l3.649-42.373c0.075-0.873-0.61-1.625-1.486-1.631l-74.841-0.548
						C243.076,380.374,242.372,381.158,242.475,382.055z"/>
				</g>
			</g>
		</g>
	</g>
</g>
<g id="Background_Simple" style="display:none;">
	<g style="display:inline;">
		<g>
			<path style="fill:#EBEBEB;" d="M359.817,96.445l-1.629-2.684c-13.731-22.628-38.558-36.269-64.734-34.613
				c-3.365,0.213-6.715,0.668-10.021,1.376c-23.799,5.094-44.507,23.091-53.09,46.14c-5.048,13.555-6.458,29.163-16.038,39.923
				c-12.467,14.003-33.634,14.443-52.243,13.863c-18.609-0.58-39.79-0.085-52.196,13.973c-7.77,8.804-10.24,21.325-9.613,33.116
				c1.659,31.217,23.412,59.13,51.076,73.005c27.664,13.874,60.235,15.117,90.512,9.014c42.414-8.55,82.749-32.03,106.994-68.295
				C373.079,184.995,379.215,135.587,359.817,96.445z"/>
		</g>
	</g>
	<g style="display:inline;">
		<g>
			<circle style="fill:#EBEBEB;" cx="173.162" cy="108.544" r="19.784"/>
		</g>
	</g>
</g>
<g id="Plant">
	<g>
		<g>
			<g>
				<g>
					<g>
						<path style="fill:#FF725E;" d="M93.556,318.853c-10.252-15.681-8.757-38.083,3.487-52.263c3.8-4.401,9.112-8.227,14.905-7.731
							c5.932,0.508,10.712,5.596,12.517,11.27c1.805,5.674,1.179,11.821,0.119,17.68c-1.485,8.203-3.971,16.597-9.661,22.689
							C109.233,316.59,100.872,322.85,93.556,318.853"/>
					</g>
				</g>
			</g>
			<g>
				<g>
					<g>
						<path style="fill:#FF725E;" d="M96.657,394.328c-3.861-9.008-1.061-20.415,6.533-26.611c2.357-1.923,5.44-3.413,8.38-2.632
							c3.01,0.799,5.012,3.854,5.428,6.94c0.416,3.087-0.464,6.197-1.541,9.12c-1.508,4.092-3.55,8.191-7.034,10.814
							C104.939,394.582,100.064,397.05,96.657,394.328"/>
					</g>
				</g>
			</g>
			<g>
				<g>
					<g>
						<path style="fill:#FF725E;" d="M74.503,388.945c2.819-13.902-4.508-29.241-17.092-35.786
							c-3.906-2.031-8.714-3.235-12.65-1.263c-4.031,2.019-5.967,6.937-5.648,11.433c0.32,4.496,2.482,8.645,4.869,12.469
							c3.342,5.355,7.442,10.562,13.151,13.254C62.842,391.744,70.476,393.806,74.503,388.945"/>
					</g>
				</g>
			</g>
			<g>
				<g>
					<g>
						<path style="fill:#FF725E;" d="M76.279,351.354c4.908-15.839-3.414-35.044-17.285-44.132
							c-4.305-2.821-9.756-4.784-14.566-2.952c-4.925,1.876-7.754,7.369-7.91,12.637c-0.155,5.268,1.873,10.347,4.202,15.075
							c3.26,6.62,7.418,13.158,13.743,16.958C60.789,352.74,71.026,356.536,76.279,351.354"/>
					</g>
				</g>
			</g>
			<g>
				<g>
					<g>
						<g>
							<path style="fill:#263238;" d="M83.569,428.774c-0.023,0.002-0.078-0.262-0.16-0.767c-0.086-0.577-0.195-1.309-0.329-2.209
								c-0.068-0.488-0.142-1.021-0.222-1.597c-0.113-0.585-0.234-1.213-0.363-1.884c-0.258-1.352-0.524-2.895-0.967-4.57
								c-0.204-0.843-0.417-1.724-0.639-2.641c-0.266-0.908-0.543-1.851-0.829-2.826c-0.528-1.966-1.309-3.999-2.04-6.166
								c-1.623-4.277-3.64-8.892-6.114-13.558c-2.521-4.643-5.253-8.875-7.921-12.593c-1.402-1.807-2.665-3.582-4.011-5.109
								c-0.655-0.777-1.288-1.529-1.897-2.253c-0.641-0.691-1.257-1.356-1.847-1.992c-1.151-1.295-2.29-2.37-3.274-3.332
								c-0.487-0.479-0.944-0.927-1.369-1.344c-0.436-0.385-0.839-0.741-1.208-1.068c-0.676-0.61-1.226-1.105-1.659-1.495
								c-0.375-0.348-0.565-0.539-0.55-0.557c0.014-0.018,0.233,0.138,0.636,0.453c0.455,0.366,1.033,0.831,1.744,1.403
								c0.382,0.314,0.799,0.656,1.251,1.027c0.438,0.406,0.909,0.842,1.412,1.308c1.013,0.94,2.181,1.997,3.36,3.278
								c0.603,0.63,1.234,1.289,1.889,1.973c0.623,0.72,1.269,1.467,1.937,2.24c1.373,1.521,2.66,3.292,4.084,5.101
								c2.712,3.72,5.477,7.97,8.014,12.642c2.49,4.695,4.503,9.348,6.104,13.663c0.72,2.186,1.485,4.237,1.994,6.222
								c0.275,0.984,0.54,1.935,0.796,2.852c0.208,0.925,0.408,1.814,0.6,2.665c0.415,1.691,0.651,3.248,0.874,4.612
								c0.11,0.677,0.214,1.311,0.31,1.9c0.059,0.581,0.114,1.118,0.165,1.611c0.083,0.909,0.151,1.647,0.205,2.229
								C83.583,428.504,83.592,428.772,83.569,428.774z"/>
						</g>
					</g>
				</g>
			</g>
			<g>
				<g>
					<g>
						<g>
							<path style="fill:#263238;" d="M83.207,431.621c-0.011-0.002-0.011-0.109,0-0.316c0.018-0.247,0.04-0.548,0.068-0.918
								c0.079-0.86,0.188-2.034,0.325-3.519c0.076-0.769,0.159-1.616,0.251-2.54c0.07-0.93,0.095-1.945,0.152-3.032
								c0.081-2.177,0.289-4.651,0.213-7.393c-0.007-1.372-0.014-2.807-0.021-4.301c-0.015-1.495-0.156-3.047-0.232-4.656
								c-0.108-3.223-0.546-6.639-0.934-10.24c-0.984-7.175-2.52-15.004-4.859-23.033c-2.417-8.009-5.397-15.412-8.484-21.964
								c-1.638-3.23-3.133-6.334-4.8-9.095c-0.813-1.39-1.541-2.768-2.344-4.03c-0.809-1.257-1.585-2.464-2.327-3.617
								c-1.431-2.341-2.954-4.301-4.208-6.082c-0.64-0.88-1.214-1.717-1.781-2.459c-0.58-0.724-1.112-1.389-1.594-1.992
								c-0.924-1.17-1.655-2.096-2.19-2.773c-0.225-0.295-0.407-0.536-0.557-0.733c-0.123-0.168-0.181-0.257-0.173-0.265
								s0.085,0.067,0.225,0.22c0.163,0.185,0.363,0.412,0.608,0.69c0.56,0.659,1.324,1.559,2.291,2.697
								c0.498,0.593,1.046,1.247,1.644,1.96c0.582,0.731,1.173,1.559,1.829,2.431c1.286,1.764,2.841,3.711,4.303,6.043
								c0.756,1.15,1.548,2.354,2.372,3.607c0.817,1.259,1.559,2.636,2.386,4.026c1.694,2.759,3.214,5.866,4.874,9.103
								c3.131,6.565,6.143,13.997,8.571,22.042c2.35,8.065,3.875,15.936,4.829,23.146c0.373,3.618,0.792,7.051,0.876,10.288
								c0.064,1.616,0.193,3.174,0.194,4.675c-0.008,1.5-0.015,2.94-0.022,4.317c0.046,2.751-0.196,5.232-0.313,7.412
								c-0.075,1.089-0.119,2.105-0.208,3.036c-0.113,0.924-0.216,1.771-0.31,2.54c-0.19,1.481-0.34,2.652-0.45,3.51
								c-0.054,0.367-0.098,0.666-0.134,0.91C83.241,431.518,83.218,431.622,83.207,431.621z"/>
						</g>
					</g>
				</g>
			</g>
			<g>
				<g>
					<g>
						<g>
							<path style="fill:#263238;" d="M109.896,277.795c0.01,0.006-0.035,0.105-0.131,0.293c-0.118,0.221-0.263,0.491-0.442,0.823
								c-0.427,0.763-1.013,1.807-1.752,3.128c-0.376,0.681-0.828,1.419-1.263,2.26c-0.423,0.851-0.881,1.772-1.372,2.758
								c-0.495,0.991-1.023,2.047-1.581,3.166c-0.534,1.133-1.042,2.357-1.608,3.627c-0.549,1.278-1.166,2.598-1.733,4.006
								c-0.546,1.418-1.114,2.891-1.702,4.416c-0.293,0.763-0.592,1.539-0.895,2.327c-0.271,0.801-0.546,1.614-0.825,2.439
								c-0.556,1.651-1.129,3.35-1.716,5.091c-2.173,7.027-4.232,14.852-5.971,23.161c-1.683,8.325-2.865,16.332-3.737,23.638
								c-0.748,7.319-1.3,13.927-1.451,19.491c-0.141,2.78-0.17,5.297-0.179,7.508c-0.036,2.211-0.044,4.116,0.008,5.672
								c0.021,1.514,0.038,2.711,0.05,3.586c-0.002,0.377-0.003,0.684-0.004,0.934c-0.005,0.211-0.013,0.319-0.024,0.319
								c-0.012,0-0.026-0.107-0.044-0.316c-0.017-0.249-0.037-0.555-0.063-0.931c-0.043-0.874-0.102-2.071-0.176-3.585
								c-0.092-1.557-0.122-3.464-0.122-5.679c-0.027-2.215-0.031-4.737,0.08-7.524c0.09-5.578,0.595-12.204,1.311-19.543
								c0.84-7.327,2.006-15.358,3.694-23.705c1.743-8.332,3.827-16.176,6.039-23.214c0.598-1.744,1.181-3.445,1.748-5.099
								c0.285-0.826,0.566-1.639,0.843-2.441c0.31-0.789,0.615-1.565,0.914-2.329c0.602-1.525,1.184-2.998,1.743-4.415
								c0.582-1.407,1.214-2.726,1.778-4.001c0.581-1.268,1.105-2.489,1.656-3.618c0.577-1.114,1.121-2.166,1.632-3.152
								c0.509-0.98,0.985-1.894,1.424-2.74c0.453-0.834,0.923-1.565,1.317-2.237c0.787-1.296,1.41-2.321,1.864-3.069
								c0.201-0.318,0.365-0.578,0.499-0.789C109.822,277.876,109.887,277.789,109.896,277.795z"/>
						</g>
					</g>
				</g>
			</g>
			<g>
				<g>
					<g>
						<g>
							<path style="fill:#263238;" d="M106.413,374.013c0.038,0.026-0.352,0.707-1.09,1.914c-0.75,1.198-1.779,2.969-2.986,5.186
								c-1.217,2.213-2.541,4.915-3.884,7.969c-1.31,3.068-2.619,6.498-3.768,10.173c-1.125,3.684-1.978,7.255-2.627,10.528
								c-0.614,3.28-1.045,6.258-1.289,8.771c-0.255,2.512-0.403,4.554-0.46,5.966c-0.071,1.412-0.133,2.195-0.179,2.195
								c-0.046,0-0.073-0.783-0.082-2.202c-0.023-1.418,0.053-3.472,0.249-6.003c0.184-2.532,0.568-5.535,1.153-8.842
								c0.62-3.301,1.461-6.902,2.594-10.612c1.157-3.701,2.494-7.149,3.844-10.223c1.382-3.061,2.759-5.757,4.035-7.951
								c1.266-2.199,2.361-3.939,3.181-5.097C105.91,374.618,106.374,373.987,106.413,374.013z"/>
						</g>
					</g>
				</g>
			</g>
		</g>
		<g>
			<g>
				<g>
					<polygon style="fill:#455A64;" points="63.434,421.716 108.468,421.716 103.019,467.711 69.043,467.711 					"/>
				</g>
			</g>
		</g>
		<g>
			<g>
				<g>
					<polygon style="fill:#263238;" points="65.078,462.746 68.903,467.711 103.019,467.711 106.953,462.905 					"/>
				</g>
			</g>
		</g>
		<g>
			<g>
				<g>
					<g>
						<path style="fill:#FFFFFF;" d="M106.713,435.244c0,0.186-9.345,0.336-20.871,0.336c-11.529,0-20.873-0.15-20.873-0.336
							c0-0.185,9.343-0.336,20.873-0.336C97.368,434.908,106.713,435.058,106.713,435.244z"/>
					</g>
				</g>
			</g>
		</g>
		<g>
			<g>
				<g>
					<g>
						<path style="fill:#FFFFFF;" d="M106.713,438.306c0,0.185-9.345,0.336-20.871,0.336c-11.529,0-20.873-0.15-20.873-0.336
							s9.343-0.336,20.873-0.336C97.368,437.97,106.713,438.121,106.713,438.306z"/>
					</g>
				</g>
			</g>
		</g>
		<g>
			<g>
				<g>
					<g>
						<path style="fill:#FFFFFF;" d="M106.151,441.271c0,0.185-9.018,0.336-20.14,0.336c-11.126,0-20.142-0.15-20.142-0.336
							s9.016-0.336,20.142-0.336C97.133,440.935,106.151,441.085,106.151,441.271z"/>
					</g>
				</g>
			</g>
		</g>
	</g>
</g>
<g id="Floor">
	<g>
		<g>
			<g>
				<path style="fill:#263238;" d="M461.824,467.763c0,0.144-97.531,0.26-217.814,0.26c-120.325,0-217.835-0.117-217.835-0.26
					c0-0.144,97.51-0.26,217.835-0.26C364.293,467.503,461.824,467.619,461.824,467.763z"/>
			</g>
		</g>
	</g>
</g>
<g id="Character">
	<g>
		<g>
			<g>
				<g>
					<path style="fill:#263238;" d="M443.943,149.852c-3.362-4.257-3.438-12.025-3.325-14.067
						c0.26-4.714-10.236-32.208-36.258-20.852l-0.003-0.018c-9.325,0-9.478,9.204-11.251,11.055
						c-1.773,1.851-3.74,3.777-4.204,6.298c-0.822,4.468,3.417,8.807,2.341,13.22c-0.404,1.656-1.511,3.058-2.293,4.57l-0.004-0.003
						c-0.833,1.358-1.495,3.557-1.138,4.779c0.358,1.222,1.136,2.267,1.777,3.367c0.641,1.1,1.167,2.365,0.941,3.617
						c-0.409,2.267-3.035,3.521-3.737,5.715c-0.689,2.15,0.664,4.364,1.889,6.261c1.225,1.897,2.412,4.276,1.423,6.306
						c-0.526,1.08-1.566,1.796-2.413,2.648c-2.566,2.584-3.332,6.79-1.84,10.112c4.991-0.983,9.982-1.965,14.974-2.948
						c0.654-7.134,1.308-14.269,1.962-21.403c4.376,1.087,9.169-1.712,11.242-2.238l2.551-1.379
						c5.578,0.981,11.599,0.631,16.493-2.22c4.894-2.85,12.143,0.793,11.194-4.791C443.804,155.172,445.647,152.009,443.943,149.852
						z"/>
				</g>
			</g>
			<g>
				<g>
					<g>
						<g>
							<g>
								<g>
									<g>
										<g>
											<g>
												<path style="fill:#FFD3C1;" d="M426.876,123.835l-20.362-6.029c-6.56-0.962-11.268,6.973-11.951,13.568
													c-0.759,7.328-1.397,16.303-0.747,21.82c1.306,11.092,9.697,12.835,9.697,12.835c0.001-0.014-1.469,15.711-1.607,19.643
													l25.112-12.853l3.169-44.912C430.307,125.896,428.869,124.128,426.876,123.835z"/>
											</g>
										</g>
										<g>
											<g>
												<g>
													<g>
														<g>
															<g>
																<g>
																	<g>
																		<g>
																			<g>
																				<g>
																					<g>
																						<g>
																							<g>
																								<g>
																									<path style="fill:#263238;" d="M395.827,140.413c-0.056,0.745,0.528,1.408,1.306,1.481
																										c0.776,0.073,1.452-0.47,1.509-1.216c0.056-0.745-0.528-1.409-1.304-1.482
																										C396.56,139.123,395.883,139.667,395.827,140.413z"/>
																								</g>
																							</g>
																						</g>
																					</g>
																				</g>
																			</g>
																		</g>
																	</g>
																</g>
															</g>
														</g>
													</g>
												</g>
											</g>
											<g>
												<g>
													<g>
														<g>
															<g>
																<g>
																	<g>
																		<g>
																			<g>
																				<g>
																					<g>
																						<g>
																							<g>
																								<g>
																									<g>
																										<path style="fill:#263238;" d="M395.071,137.176c0.137,0.185,1.345-0.077,2.843,0.368
																											c1.501,0.43,2.452,1.322,2.65,1.235c0.096-0.036-0.017-0.329-0.428-0.727
																											c-0.404-0.394-1.143-0.88-2.078-1.154c-0.935-0.272-1.787-0.252-2.307-0.126
																											C395.221,136.896,395.001,137.092,395.071,137.176z"/>
																									</g>
																								</g>
																							</g>
																						</g>
																					</g>
																				</g>
																			</g>
																		</g>
																	</g>
																</g>
															</g>
														</g>
													</g>
												</g>
											</g>
										</g>
										<g>
											<g>
												<g>
													<g>
														<g>
															<g>
																<g>
																	<g>
																		<g>
																			<g>
																				<g>
																					<g>
																						<g>
																							<g>
																								<g>
																									<path style="fill:#263238;" d="M409.933,141.559c-0.057,0.746,0.528,1.408,1.305,1.481
																										c0.776,0.073,1.452-0.47,1.508-1.216c0.057-0.745-0.528-1.409-1.304-1.482
																										C410.666,140.269,409.99,140.814,409.933,141.559z"/>
																								</g>
																							</g>
																						</g>
																					</g>
																				</g>
																			</g>
																		</g>
																	</g>
																</g>
															</g>
														</g>
													</g>
												</g>
											</g>
											<g>
												<g>
													<g>
														<g>
															<g>
																<g>
																	<g>
																		<g>
																			<g>
																				<g>
																					<g>
																						<g>
																							<g>
																								<g>
																									<g>
																										<path style="fill:#263238;" d="M410.186,139.18c0.221,0.104,1.316-0.634,3.017-0.873
																											c1.697-0.254,3.05,0.128,3.21-0.031c0.079-0.072-0.162-0.282-0.755-0.458
																											c-0.582-0.176-1.54-0.292-2.599-0.138c-1.059,0.154-1.905,0.531-2.371,0.859
																											C410.213,138.87,410.079,139.134,410.186,139.18z"/>
																									</g>
																								</g>
																							</g>
																						</g>
																					</g>
																				</g>
																			</g>
																		</g>
																	</g>
																</g>
															</g>
														</g>
													</g>
												</g>
											</g>
										</g>
										<g>
											<g>
												<g>
													<g>
														<g>
															<g>
																<g>
																	<g>
																		<g>
																			<g>
																				<g>
																					<g>
																						<g>
																							<g>
																								<g>
																									<path style="fill:#263238;" d="M404.934,149.107c0.011-0.086-0.928-0.288-2.453-0.545
																										c-0.387-0.056-0.751-0.148-0.806-0.415c-0.08-0.285,0.099-0.697,0.306-1.141
																										c0.403-0.925,0.825-1.895,1.268-2.911c1.765-4.146,3.059-7.562,2.891-7.632
																										c-0.167-0.069-1.734,3.235-3.499,7.381c-0.426,1.023-0.833,1.998-1.221,2.931
																										c-0.165,0.436-0.438,0.926-0.263,1.516c0.093,0.294,0.369,0.516,0.616,0.594
																										c0.246,0.086,0.464,0.099,0.656,0.118C403.968,149.147,404.925,149.193,404.934,149.107z"/>
																								</g>
																							</g>
																						</g>
																					</g>
																				</g>
																			</g>
																		</g>
																	</g>
																</g>
															</g>
														</g>
													</g>
												</g>
											</g>
										</g>
										<g>
											<g>
												<g>
													<g>
														<g>
															<g>
																<g>
																	<g>
																		<g>
																			<g>
																				<g>
																					<g>
																						<g>
																							<g>
																								<path style="fill:#F4AF9B;" d="M403.512,166.029c0,0,7.244,0.929,14.768-3.191
																									c-0.125,0.022-4.518,7.672-15.037,6.115L403.512,166.029z"/>
																							</g>
																						</g>
																					</g>
																				</g>
																			</g>
																		</g>
																	</g>
																</g>
															</g>
														</g>
													</g>
												</g>
											</g>
										</g>
										<g>
											<g>
												<g>
													<g>
														<g>
															<g>
																<g>
																	<g>
																		<g>
																			<g>
																				<g>
																					<g>
																						<g>
																							<g>
																								<path style="fill:#F4AF9B;" d="M405.429,152.798c0.576-0.701,1.551-1.06,2.498-0.919
																									c0.657,0.098,1.312,0.443,1.691,0.996c0.379,0.553,0.433,1.32,0.047,1.818
																									c-0.434,0.561-1.297,0.66-2.014,0.424c-0.718-0.236-1.323-0.739-1.897-1.239
																									c-0.159-0.138-0.321-0.282-0.416-0.467c-0.095-0.185-0.108-0.422,0.025-0.566"/>
																							</g>
																						</g>
																					</g>
																				</g>
																			</g>
																		</g>
																	</g>
																</g>
															</g>
														</g>
													</g>
												</g>
											</g>
										</g>
										<g>
											<g>
												<g>
													<g>
														<g>
															<g>
																<g>
																	<g>
																		<g>
																			<g>
																				<g>
																					<g>
																						<g>
																							<g>
																								<g>
																									<path style="fill:#263238;" d="M409.368,150.339c-0.247-0.024-0.317,1.627-1.777,2.741
																										c-1.458,1.119-3.21,0.862-3.233,1.093c-0.027,0.103,0.379,0.336,1.121,0.386
																										c0.728,0.055,1.801-0.137,2.695-0.819c0.891-0.684,1.3-1.628,1.384-2.303
																										C409.649,150.751,409.481,150.334,409.368,150.339z"/>
																								</g>
																							</g>
																						</g>
																					</g>
																				</g>
																			</g>
																		</g>
																	</g>
																</g>
															</g>
														</g>
													</g>
												</g>
											</g>
										</g>
									</g>
								</g>
							</g>
							<g>
								<g>
									<g>
										<g>
											<g>
												<g>
													<g>
														<g>
															<g>
																<g>
																	<g>
																		<g>
																			<g>
																				<g>
																					<path style="fill:#263238;" d="M410.382,133.765c0.134,0.419,1.66,0.285,3.435,0.572
																						c1.782,0.251,3.2,0.832,3.452,0.47c0.113-0.173-0.122-0.572-0.688-0.996c-0.56-0.423-1.465-0.84-2.532-1.003
																						c-1.067-0.16-2.054-0.03-2.715,0.209C410.668,133.255,410.325,133.566,410.382,133.765z"/>
																				</g>
																			</g>
																		</g>
																	</g>
																</g>
															</g>
														</g>
													</g>
												</g>
											</g>
										</g>
									</g>
								</g>
							</g>
							<g>
								<g>
									<g>
										<g>
											<g>
												<g>
													<g>
														<g>
															<g>
																<g>
																	<g>
																		<g>
																			<g>
																				<g>
																					<path style="fill:#263238;" d="M396.706,132.783c0.254,0.356,1.316,0.04,2.577,0.074
																						c1.262-0.01,2.318,0.326,2.578-0.025c0.115-0.171-0.039-0.524-0.492-0.87c-0.446-0.344-1.204-0.642-2.071-0.65
																						c-0.867-0.007-1.63,0.275-2.082,0.612C396.755,132.26,396.595,132.61,396.706,132.783z"/>
																				</g>
																			</g>
																		</g>
																	</g>
																</g>
															</g>
														</g>
													</g>
												</g>
											</g>
										</g>
									</g>
								</g>
							</g>
						</g>
					</g>
				</g>
			</g>
			<g>
				<g>
					<g>
						<path style="fill:#263238;" d="M404.112,116.365c8.185,1.299,16.215,3.576,23.863,6.77c1.773,0.74,3.632,1.62,4.635,3.259
							c1.061,1.735,0.924,3.919,0.752,5.945c-0.839,9.879-1.678,19.759-2.517,29.638l-1.062-0.055
							c-3.055,0.496-3.266-1.057-5.451-3.249s-3.231-5.461-2.726-8.514c0.446-2.694,2.01-5.393,1.169-7.991
							c-1.112-3.435-5.82-4.658-6.952-8.087c-0.658-1.992,0.087-4.266-0.669-6.223c-0.711-1.84-2.577-2.956-4.405-3.697
							c-1.829-0.741-3.799-1.28-5.309-2.549C403.928,120.344,403.044,118.023,404.112,116.365z"/>
					</g>
				</g>
			</g>
		</g>
		<g>
			<g>
				<g>
					<g>
						<path style="fill:#263238;" d="M337.269,173.313h-80.714c-3.287,0-5.952-2.665-5.952-5.952v-64.875
							c0-3.287,2.665-5.952,5.952-5.952l80.714,0c3.288,0,5.953,2.665,5.953,5.952v64.875
							C343.222,170.648,340.557,173.313,337.269,173.313z"/>
					</g>
				</g>
			</g>
			<g>
				<g>
					<g>
						<g>
							<circle style="fill:#FF725E;" cx="296.912" cy="133.432" r="13.348"/>
						</g>
					</g>
				</g>
				<g>
					<g>
						<g>
							<path style="fill:#FFFFFF;" d="M293.696,137.336v-7.875c0-0.384,0.413-0.625,0.748-0.437l7.039,3.968
								c0.341,0.192,0.34,0.685-0.003,0.875l-7.039,3.908C294.107,137.96,293.696,137.719,293.696,137.336z"/>
						</g>
					</g>
				</g>
			</g>
		</g>
		<g>
			<g>
				<g>
					<g>
						<g>
							<g>
								<g>
									<g>
										<g>
											<g>
												<g>
													<path style="fill:#455A64;" d="M380.678,431.54l2.309,22.25c0,0-21.84,9.82-21.814,13.973l43.302-2.928l-2.175-34.816
														L380.678,431.54z"/>
												</g>
											</g>
										</g>
									</g>
								</g>
							</g>
						</g>
					</g>
					<g style="opacity:0.3;">
						<g>
							<g>
								<g>
									<g>
										<g>
											<g>
												<g>
													<path d="M380.678,431.54l2.309,22.25c0,0-21.84,9.82-21.814,13.973l43.302-2.928l-2.175-34.816L380.678,431.54z"/>
												</g>
											</g>
										</g>
									</g>
								</g>
							</g>
						</g>
					</g>
					<g style="opacity:0.6;">
						<g>
							<g>
								<g>
									<g>
										<g>
											<g>
												<g>
													<g>
														<path style="fill:#FFFFFF;" d="M396.25,451.008c0.854,0.173,1.496,1.076,1.359,1.936
															c-0.137,0.86-1.05,1.521-1.906,1.364c-0.856-0.157-1.661-1.218-1.429-2.057c0.233-0.839,1.347-1.557,2.141-1.199"/>
													</g>
												</g>
											</g>
										</g>
									</g>
								</g>
							</g>
						</g>
					</g>
					<g style="opacity:0.6;">
						<g>
							<g>
								<g>
									<g>
										<g>
											<g>
												<g>
													<path style="fill:#FFFFFF;" d="M404.475,464.835l-0.356-3.501l-41.384,4.116c0,0-1.871,0.969-1.561,2.312
														L404.475,464.835z"/>
												</g>
											</g>
										</g>
									</g>
								</g>
							</g>
						</g>
					</g>
					<g>
						<g>
							<g>
								<g>
									<g>
										<g>
											<g>
												<g>
													<g>
														<path style="fill:#263238;" d="M382.27,453.617c0.021,0.211,1.085,0.235,2.171,0.845
															c1.102,0.581,1.7,1.461,1.889,1.364c0.192-0.054-0.209-1.297-1.537-2.012
															C383.473,453.087,382.211,453.426,382.27,453.617z"/>
													</g>
												</g>
											</g>
										</g>
									</g>
								</g>
							</g>
						</g>
					</g>
					<g>
						<g>
							<g>
								<g>
									<g>
										<g>
											<g>
												<g>
													<g>
														<path style="fill:#263238;" d="M377.855,455.803c-0.034,0.208,0.906,0.506,1.684,1.352
															c0.803,0.823,1.05,1.777,1.26,1.754c0.201,0.02,0.263-1.228-0.725-2.261
															C379.096,455.605,377.847,455.601,377.855,455.803z"/>
													</g>
												</g>
											</g>
										</g>
									</g>
								</g>
							</g>
						</g>
					</g>
					<g>
						<g>
							<g>
								<g>
									<g>
										<g>
											<g>
												<g>
													<g>
														<path style="fill:#263238;" d="M375.643,461.413c0.195,0.032,0.418-1.044-0.203-2.165
															c-0.613-1.126-1.641-1.515-1.719-1.333c-0.108,0.182,0.576,0.76,1.072,1.688
															C375.311,460.519,375.432,461.406,375.643,461.413z"/>
													</g>
												</g>
											</g>
										</g>
									</g>
								</g>
							</g>
						</g>
					</g>
					<g>
						<g>
							<g>
								<g>
									<g>
										<g>
											<g>
												<g>
													<g>
														<path style="fill:#263238;" d="M382.306,448.488c0.102,0.187,1.052-0.171,2.253-0.17
															c1.201-0.024,2.157,0.314,2.256,0.125c0.112-0.161-0.849-0.883-2.263-0.863
															C383.138,447.589,382.191,448.329,382.306,448.488z"/>
													</g>
												</g>
											</g>
										</g>
									</g>
								</g>
							</g>
						</g>
					</g>
				</g>
				<g>
					<g>
						<g>
							<g>
								<g>
									<g>
										<g>
											<g>
												<g>
													<path style="fill:#263238;" d="M381.923,443.991c0.004,0.087,0.848,0.162,2.168-0.158
														c0.657-0.16,1.425-0.43,2.222-0.851c0.398-0.21,0.802-0.458,1.201-0.745c0.191-0.142,0.419-0.287,0.62-0.554
														c0.219-0.236,0.315-0.806,0.021-1.131c-0.244-0.318-0.646-0.435-0.959-0.421c-0.32,0.011-0.574,0.093-0.806,0.168
														c-0.474,0.149-0.916,0.34-1.317,0.554c-0.802,0.432-1.442,0.954-1.911,1.448c-0.942,0.998-1.231,1.811-1.156,1.847
														c0.101,0.063,0.544-0.632,1.515-1.469c0.484-0.416,1.109-0.856,1.861-1.22c0.377-0.18,0.785-0.341,1.219-0.468
														c0.451-0.151,0.84-0.181,0.972,0.015c0.048,0.075,0.056,0.105-0.031,0.246c-0.091,0.13-0.268,0.264-0.456,0.405
														c-0.366,0.276-0.737,0.519-1.102,0.732c-0.73,0.426-1.435,0.731-2.042,0.945
														C382.724,443.763,381.912,443.876,381.923,443.991z"/>
												</g>
											</g>
										</g>
									</g>
								</g>
							</g>
						</g>
					</g>
				</g>
				<g>
					<g>
						<g>
							<g>
								<g>
									<g>
										<g>
											<g>
												<g>
													<path style="fill:#263238;" d="M382.219,444.275c0.077,0.028,0.445-0.758,0.43-2.133
														c-0.01-0.682-0.136-1.5-0.456-2.354c-0.162-0.426-0.373-0.859-0.641-1.279c-0.283-0.41-0.631-0.962-1.457-1.001
														c-0.429,0.013-0.763,0.372-0.865,0.666c-0.123,0.302-0.135,0.556-0.169,0.81c-0.046,0.511-0.003,1.006,0.097,1.461
														c0.199,0.912,0.628,1.654,1.078,2.177c0.922,1.065,1.822,1.258,1.834,1.185c0.064-0.111-0.701-0.469-1.422-1.504
														c-0.355-0.51-0.686-1.192-0.824-1.991c-0.07-0.398-0.092-0.824-0.045-1.256c0.037-0.465,0.184-0.848,0.36-0.813
														c0.215-0.018,0.605,0.304,0.807,0.659c0.249,0.373,0.452,0.758,0.617,1.139c0.324,0.764,0.493,1.505,0.566,2.135
														C382.275,443.444,382.102,444.25,382.219,444.275z"/>
												</g>
											</g>
										</g>
									</g>
								</g>
							</g>
						</g>
					</g>
				</g>
			</g>
			<g>
				<g>
					<g>
						<path style="fill:#263238;" d="M376.924,268.702c0,0-19.184,87.079-19.772,94.854c-0.588,7.775,23.773,74.905,23.773,74.905
							l20.964-3.958c0,0-1.332-99.132-2.012-101.076c-0.68-1.944,5.357-50.663,5.357-50.663L376.924,268.702z"/>
					</g>
				</g>
			</g>
			<g>
				<g>
					<g>
						<g>
							<g>
								<g>
									<g>
										<g>
											<g>
												<g>
													<path style="fill:#455A64;" d="M390.318,432.576l0.232,22.368c0,0-22.659,7.748-23.018,11.885l43.381,0.452
														l1.075-34.211L390.318,432.576z"/>
												</g>
											</g>
										</g>
									</g>
								</g>
							</g>
						</g>
					</g>
					<g style="opacity:0.6;">
						<g>
							<g>
								<g>
									<g>
										<g>
											<g>
												<g>
													<g>
														<path style="fill:#FFFFFF;" d="M404.014,453.407c0.834,0.251,1.39,1.21,1.173,2.053
															c-0.216,0.843-1.187,1.417-2.025,1.181c-0.838-0.236-1.541-1.367-1.231-2.181c0.31-0.814,1.486-1.426,2.243-0.995"/>
													</g>
												</g>
											</g>
										</g>
									</g>
								</g>
							</g>
						</g>
					</g>
					<g style="opacity:0.6;">
						<g>
							<g>
								<g>
									<g>
										<g>
											<g>
												<g>
													<path style="fill:#FFFFFF;" d="M410.913,467.282l-0.024-2.862l-41.588,0.253c0,0-1.953,0.791-1.769,2.157
														L410.913,467.282z"/>
												</g>
											</g>
										</g>
									</g>
								</g>
							</g>
						</g>
					</g>
					<g>
						<g>
							<g>
								<g>
									<g>
										<g>
											<g>
												<g>
													<g>
														<path style="fill:#263238;" d="M389.852,454.705c0.002,0.212,1.058,0.335,2.084,1.043
															c1.043,0.681,1.557,1.612,1.754,1.534c0.196-0.036-0.087-1.311-1.344-2.146
															C391.099,454.29,389.811,454.51,389.852,454.705z"/>
													</g>
												</g>
											</g>
										</g>
									</g>
								</g>
							</g>
						</g>
					</g>
					<g>
						<g>
							<g>
								<g>
									<g>
										<g>
											<g>
												<g>
													<g>
														<path style="fill:#263238;" d="M385.254,456.471c-0.053,0.204,0.855,0.588,1.551,1.502
															c0.723,0.894,0.88,1.867,1.091,1.864c0.198,0.038,0.377-1.199-0.511-2.319
															C386.508,456.39,385.264,456.27,385.254,456.471z"/>
													</g>
												</g>
											</g>
										</g>
									</g>
								</g>
							</g>
						</g>
					</g>
					<g>
						<g>
							<g>
								<g>
									<g>
										<g>
											<g>
												<g>
													<g>
														<path style="fill:#263238;" d="M382.53,461.852c0.191,0.05,0.513-1.001-0.001-2.175
															c-0.506-1.178-1.493-1.661-1.588-1.487c-0.124,0.171,0.503,0.81,0.911,1.781
															C382.282,460.931,382.32,461.826,382.53,461.852z"/>
													</g>
												</g>
											</g>
										</g>
									</g>
								</g>
							</g>
						</g>
					</g>
					<g>
						<g>
							<g>
								<g>
									<g>
										<g>
											<g>
												<g>
													<g>
														<path style="fill:#263238;" d="M390.365,449.602c0.084,0.195,1.063-0.072,2.259,0.04
															c1.198,0.087,2.119,0.513,2.234,0.334c0.126-0.15-0.763-0.957-2.173-1.07
															C391.277,448.784,390.265,449.433,390.365,449.602z"/>
													</g>
												</g>
											</g>
										</g>
									</g>
								</g>
							</g>
						</g>
					</g>
				</g>
				<g style="opacity:0.3;">
					<g>
						<g>
							<g>
								<g>
									<g>
										<g>
											<g>
												<polygon points="390.369,437.006 390.405,440.992 411.734,441.343 411.853,437.755 												"/>
											</g>
										</g>
									</g>
								</g>
							</g>
						</g>
					</g>
				</g>
				<g>
					<g>
						<g>
							<g>
								<g>
									<g>
										<g>
											<g>
												<g>
													<path style="fill:#263238;" d="M390.401,445.088c-0.004,0.088,0.829,0.24,2.173,0.044
														c0.669-0.098,1.459-0.296,2.291-0.64c0.415-0.173,0.841-0.381,1.265-0.63c0.203-0.123,0.444-0.247,0.669-0.494
														c0.241-0.215,0.388-0.773,0.126-1.124c-0.214-0.339-0.603-0.493-0.916-0.508c-0.32-0.018-0.58,0.039-0.818,0.092
														c-0.486,0.105-0.943,0.253-1.363,0.429c-0.839,0.356-1.524,0.815-2.037,1.264c-1.03,0.906-1.394,1.689-1.323,1.732
														c0.094,0.072,0.601-0.579,1.645-1.322c0.52-0.37,1.183-0.749,1.966-1.043c0.392-0.145,0.813-0.267,1.257-0.353
														c0.463-0.109,0.854-0.102,0.967,0.105c0.041,0.079,0.045,0.11-0.054,0.242c-0.103,0.121-0.292,0.238-0.492,0.361
														c-0.39,0.24-0.782,0.448-1.165,0.627c-0.766,0.356-1.497,0.594-2.121,0.751
														C391.22,444.936,390.401,444.974,390.401,445.088z"/>
												</g>
											</g>
										</g>
									</g>
								</g>
							</g>
						</g>
					</g>
				</g>
				<g>
					<g>
						<g>
							<g>
								<g>
									<g>
										<g>
											<g>
												<g>
													<path style="fill:#263238;" d="M390.67,445.399c0.074,0.034,0.514-0.714,0.627-2.084
														c0.054-0.68,0.004-1.506-0.236-2.387c-0.122-0.439-0.292-0.89-0.52-1.333c-0.243-0.435-0.539-1.017-1.358-1.132
														c-0.429-0.027-0.794,0.299-0.923,0.583c-0.151,0.29-0.186,0.541-0.243,0.791c-0.093,0.505-0.096,1.002-0.039,1.463
														c0.113,0.927,0.471,1.705,0.871,2.269c0.819,1.146,1.696,1.422,1.716,1.35c0.074-0.105-0.655-0.532-1.276-1.629
														c-0.306-0.541-0.573-1.25-0.635-2.059c-0.033-0.403-0.015-0.829,0.072-1.255c0.08-0.46,0.262-0.827,0.434-0.775
														c0.216,0.002,0.574,0.359,0.742,0.731c0.213,0.395,0.38,0.797,0.508,1.192c0.252,0.791,0.351,1.545,0.365,2.179
														C390.802,444.576,390.555,445.364,390.67,445.399z"/>
												</g>
											</g>
										</g>
									</g>
								</g>
							</g>
						</g>
					</g>
				</g>
			</g>
			<g>
				<g>
					<path style="fill:#263238;" d="M425.674,267.36l-48.749,1.342l6.997,86.736l4.339,83.608l25.288,0.883
						c1.291-16.138,1.385-73.167,1.385-73.167l5.105-34.445c1.185-9.288,4.912-19.045,6.707-27.381
						c1.055-4.897,2.596-11.248,2.923-13.321C430.636,285.481,425.674,267.36,425.674,267.36z"/>
				</g>
			</g>
			<g>
				<g>
					<g>
						<g>
							<path style="fill:#455A64;" d="M379.763,288.661c0.009,0,0.011,0.132,0.006,0.389c-0.008,0.28-0.018,0.658-0.032,1.14
								c-0.04,1.028-0.097,2.499-0.169,4.38c-0.084,1.901-0.181,4.228-0.262,6.93c-0.085,2.702-0.214,5.777-0.277,9.179
								c-0.185,6.802-0.286,14.905-0.253,23.9c0.068,8.995,0.284,18.884,0.789,29.253c0.534,10.371,1.319,20.233,2.21,29.185
								c0.491,4.471,0.925,8.724,1.463,12.688c0.26,1.983,0.48,3.903,0.745,5.741c0.269,1.837,0.526,3.6,0.773,5.284
								c0.463,3.371,1.007,6.4,1.438,9.068c0.422,2.67,0.839,4.96,1.192,6.83c0.334,1.852,0.595,3.3,0.778,4.313
								c0.08,0.475,0.143,0.848,0.19,1.124c0.04,0.254,0.056,0.385,0.048,0.386c-0.008,0.002-0.041-0.126-0.098-0.376
								c-0.059-0.274-0.138-0.643-0.239-1.115c-0.204-1.009-0.496-2.451-0.87-4.296c-0.382-1.865-0.827-4.151-1.275-6.818
								c-0.457-2.665-1.026-5.693-1.512-9.063c-0.257-1.683-0.525-3.447-0.805-5.283c-0.276-1.838-0.506-3.757-0.774-5.741
								c-0.557-3.965-1.006-8.22-1.51-12.694c-0.917-8.957-1.716-18.827-2.251-29.207c-0.505-10.377-0.708-20.274-0.751-29.276
								c-0.007-9.002,0.129-17.108,0.36-23.912c0.085-3.403,0.24-6.479,0.351-9.181c0.107-2.702,0.233-5.028,0.346-6.928
								c0.113-1.879,0.201-3.349,0.263-4.376c0.034-0.481,0.061-0.858,0.081-1.137C379.74,288.791,379.755,288.66,379.763,288.661z"
								/>
						</g>
					</g>
				</g>
			</g>
		</g>
		<g>
			<g>
				<g>
					<polygon style="fill:#FFD3C1;" points="352.014,172.656 339.529,159.327 329.688,166.22 339.529,180.775 					"/>
				</g>
			</g>
			<g>
				<g>
					<path style="fill:#FF725E;" d="M430.945,177.583l-0.61-8.449l-28.188-0.408l-0.241,10.609c0,0-13.838,14.966-18.863,31.757
						c-8.445,28.22-11.504,64.141-11.504,64.141h57.692c-0.6-9.938-4.704-32.184-4.704-32.184l12.825-38.249
						C440.541,191.053,430.945,177.583,430.945,177.583z"/>
				</g>
			</g>
			<g>
				<g>
					<g>
						<g>
							<path style="fill:#263238;" d="M361.144,215.772c0,0,0.16,0.154,0.479,0.432c0.308,0.292,0.801,0.676,1.463,1.135
								c1.322,0.897,3.454,2.006,6.321,2.426c1.422,0.223,3.033,0.217,4.7-0.048c1.676-0.192,3.466-0.421,5.348-0.671
								c3.763-0.509,7.89-1.143,12.211-1.872c8.602-1.509,16.386-2.875,22.104-3.879c2.782-0.454,5.057-0.826,6.711-1.096
								c0.746-0.119,1.351-0.216,1.826-0.291c0.417-0.069,0.635-0.116,0.635-0.116s-0.222,0.018-0.641,0.073
								c-0.476,0.065-1.083,0.148-1.832,0.251c-1.59,0.224-3.888,0.57-6.723,1.028c-5.673,0.902-13.476,2.346-22.115,3.816
								c-4.319,0.728-8.443,1.368-12.202,1.888c-1.88,0.255-3.668,0.491-5.346,0.691c-1.67,0.273-3.235,0.285-4.654,0.075
								c-2.841-0.396-4.967-1.474-6.296-2.344c-0.665-0.447-1.164-0.818-1.481-1.098
								C361.324,215.905,361.144,215.772,361.144,215.772z"/>
						</g>
					</g>
				</g>
			</g>
			<g>
				<g>
					<g>
						<g>
							<path style="fill:#263238;" d="M432.72,202.135c0.007,0.001,0.028-0.076,0.061-0.225c0.042-0.205,0.086-0.42,0.134-0.652
								c0.11-0.567,0.258-1.391,0.4-2.415c0.269-2.034,0.561-4.952-0.208-8.053c-0.786-3.104-2.729-5.471-4.483-6.58
								c-0.875-0.566-1.67-0.876-2.234-1.014c-0.563-0.143-0.884-0.163-0.884-0.163c-0.029,0.069,1.32,0.146,3.033,1.304
								c1.701,1.121,3.586,3.458,4.358,6.506c0.758,3.052,0.496,5.947,0.266,7.98c-0.122,1.023-0.247,1.849-0.331,2.42
								c-0.034,0.234-0.064,0.451-0.094,0.658C432.719,202.054,432.713,202.134,432.72,202.135z"/>
						</g>
					</g>
				</g>
			</g>
			<g>
				<g>
					<g>
						<g>
							<path style="fill:#263238;" d="M372.709,209.02c0.015-0.002-0.001-0.227-0.043-0.632c-0.05-0.535-0.102-1.102-0.159-1.715
								c-0.121-1.448-0.221-3.455-0.167-5.672c0.057-2.217,0.258-4.217,0.451-5.657c0.088-0.61,0.169-1.173,0.245-1.705
								c0.062-0.402,0.089-0.626,0.074-0.629c-0.015-0.003-0.07,0.216-0.157,0.614c-0.089,0.398-0.198,0.978-0.314,1.698
								c-0.233,1.439-0.459,3.447-0.516,5.674c-0.054,2.227,0.071,4.242,0.231,5.692c0.079,0.725,0.159,1.309,0.229,1.712
								C372.65,208.802,372.694,209.023,372.709,209.02z"/>
						</g>
					</g>
				</g>
			</g>
			<g>
				<g>
					<g>
						<g>
							<path style="fill:#263238;" d="M402.241,179.18c0.587-1.996,1.845-3.716,3.082-5.389c2.02-2.733,4.201-5.587,7.345-6.876
								c2.142-0.879,7.674-0.392,9.148-2.178c4.599-5.574-2.139-9.035,0.309-16.701c2.681-8.395,1.295-7.109,1.501-13.712
								l10.216-4.418c1.608,1.201,6.073,5.536,5.579,7.482c-0.494,1.945-0.348,4.113,0.391,6.428
								c1.571,4.923,6.991,7.826,9.555,12.313c2.626,4.597-0.333,10.69-0.404,15.984c-0.07,5.294,1.928,11.658,7.095,12.811
								c-1.927,3.881-5.164,7.098-9.057,9.002c-1.081-1.471-2.161-2.943-3.242-4.414c0.643,3.993-2.075,8.251-5.968,9.349
								c-1.087-4.646-2.236-9.431-5.048-13.285c-2.813-3.854-7.749-6.573-12.357-5.339c-3.084,0.826-5.469,3.204-8.223,4.818
								c-2.754,1.614-6.658,2.299-8.862-0.01C401.864,183.538,401.654,181.176,402.241,179.18z"/>
						</g>
					</g>
				</g>
			</g>
			<g style="opacity:0.3;">
				<g>
					<g>
						<path d="M383.042,218.383c13.294-2.426,31.008-5.326,44.302-7.752c0.496-0.091,1.024-0.179,1.493,0.008
							c0.881,0.351,1.138,1.57,0.741,2.432s-1.242,1.422-2.083,1.862c-4.362,2.28-9.478,2.463-14.398,2.598
							C404.695,217.76,391.445,218.154,383.042,218.383L383.042,218.383z"/>
					</g>
				</g>
			</g>
			<g>
				<g>
					<g>
						<path style="fill:#FF725E;" d="M373.335,219.706c4.134,0.085,51.734-8.615,51.734-8.615"/>
					</g>
				</g>
			</g>
			<g>
				<g>
					<g>
						<g>
							<g>
								<g>
									<g>
										<path style="fill:#FF725E;" d="M424.26,181.37c3.488,0.431,5.764,1.037,9.836,5.396c0.436,0.467,0.842,1.047,1.218,1.71
											c4.537,8.002,1.251,19.048-7.443,22.052l-8.42,1.733l-46.116,7.444c0,0-9.825,2.208-18.261-10.888
											c-3.095-4.805-24.403-36.588-24.403-36.588l14-9.371l28.222,30.194L424.26,181.37z"/>
									</g>
								</g>
							</g>
						</g>
					</g>
				</g>
				<g>
					<g>
						<g>
							<g>
								<g>
									<path style="fill:#263238;" d="M361.144,215.772c0,0,0.16,0.154,0.479,0.432c0.308,0.292,0.801,0.676,1.463,1.135
										c1.322,0.897,3.454,2.006,6.321,2.426c1.422,0.223,3.033,0.217,4.7-0.048c1.676-0.192,3.466-0.421,5.348-0.671
										c3.763-0.509,7.89-1.143,12.211-1.872c8.602-1.509,16.386-2.875,22.104-3.879c2.782-0.454,5.057-0.826,6.711-1.096
										c0.746-0.119,1.351-0.216,1.826-0.291c0.417-0.069,0.635-0.116,0.635-0.116s-0.222,0.018-0.641,0.073
										c-0.476,0.065-1.083,0.148-1.832,0.251c-1.59,0.224-3.888,0.57-6.723,1.028c-5.673,0.902-13.476,2.346-22.115,3.816
										c-4.319,0.728-8.443,1.368-12.202,1.888c-1.88,0.255-3.668,0.491-5.346,0.691c-1.67,0.273-3.235,0.285-4.654,0.075
										c-2.841-0.396-4.967-1.474-6.296-2.344c-0.665-0.447-1.164-0.818-1.481-1.098
										C361.324,215.905,361.144,215.772,361.144,215.772z"/>
								</g>
							</g>
						</g>
					</g>
					<g>
						<g>
							<g>
								<g>
									<path style="fill:#263238;" d="M432.72,202.135c0.007,0.001,0.028-0.076,0.061-0.225c0.042-0.205,0.086-0.42,0.134-0.652
										c0.11-0.567,0.258-1.391,0.4-2.415c0.269-2.034,0.561-4.952-0.208-8.053c-0.786-3.104-2.729-5.471-4.483-6.58
										c-0.875-0.566-1.67-0.876-2.234-1.014c-0.563-0.143-0.884-0.163-0.884-0.163c-0.029,0.069,1.32,0.146,3.033,1.304
										c1.701,1.121,3.586,3.458,4.358,6.506c0.758,3.052,0.496,5.947,0.266,7.98c-0.122,1.023-0.247,1.849-0.331,2.42
										c-0.034,0.234-0.064,0.451-0.094,0.658C432.719,202.054,432.713,202.134,432.72,202.135z"/>
								</g>
							</g>
						</g>
					</g>
					<g>
						<g>
							<g>
								<g>
									<path style="fill:#263238;" d="M372.709,209.02c0.015-0.002-0.001-0.227-0.043-0.632c-0.05-0.535-0.102-1.102-0.159-1.715
										c-0.121-1.448-0.221-3.455-0.167-5.672c0.057-2.217,0.258-4.217,0.451-5.657c0.088-0.61,0.169-1.173,0.245-1.705
										c0.062-0.402,0.089-0.626,0.074-0.629c-0.015-0.003-0.07,0.216-0.157,0.614c-0.089,0.398-0.198,0.978-0.314,1.698
										c-0.233,1.439-0.459,3.447-0.516,5.674c-0.054,2.227,0.071,4.242,0.231,5.692c0.079,0.725,0.159,1.309,0.229,1.712
										C372.65,208.802,372.694,209.023,372.709,209.02z"/>
								</g>
							</g>
						</g>
					</g>
				</g>
			</g>
		</g>
		<g>
			<g>
				<path style="fill:#FFD3C1;" d="M339.468,149.035c-0.38-2.973-0.331-4.829-0.257-5.733c0.035-0.418-0.315-0.754-0.733-0.715
					c-0.76,0.07-1.878,0.499-2.569,2.245c-0.422,1.066-0.297,2.166-0.287,3.233c0.017,1.778,0,3.181,0,3.181
					s-8.88-10.629-10.68-11.109c-0.975-0.26-1.322,0.032-1.677,0.603c-0.33,0.529,0.327,1.771,0.327,1.771l5.006,7.163
					c0,0-7.568-8.908-8.935-8.882c-1.403,0.026-1.972,1.036-1.108,2.65c0.645,1.206,7.256,9.042,7.256,9.042
					s-7.073-6.827-8.476-6.77c-1.41,0.058-1.171,1.548-0.431,2.169c0.74,0.622,5.975,6.703,5.975,6.703s-5.11-4.313-6.142-3.974
					c-1.058,0.347-0.586,1.483-0.041,2.407c0.545,0.924,13.36,13.745,13.36,13.745l11.111-5.581v0
					c0.294-1.561,0.238-3.163-0.169-4.699C340.492,154.582,339.813,151.736,339.468,149.035z"/>
			</g>
		</g>
	</g>
</g>
<g id="Folder">
	<g>
		<g>
			<g>
				<g>
					<g>
						<g>
							<g>
								<g>
									<path style="fill:#FF725E;" d="M176.191,275.308c-5.65,0-10.231-4.581-10.231-10.231v-88.936
										c0-4.525,3.917-8.194,8.749-8.194h8.363c3.413,0,6.514-1.858,7.944-4.76l1.797-3.646c1.43-2.902,4.531-4.76,7.944-4.76
										h39.697c3.094,0,5.958,1.531,7.533,4.026l1.95,3.09c1.574,2.495,4.438,4.026,7.533,4.026h50.605
										c4.832,0,8.749,3.669,8.749,8.194v90.962c0,5.65-4.581,10.231-10.231,10.231H176.191z"/>
								</g>
							</g>
						</g>
					</g>
				</g>
			</g>
			<g style="opacity:0.3;">
				<g>
					<g>
						<g>
							<g>
								<g>
									<path d="M176.191,275.308c-5.65,0-10.231-4.581-10.231-10.231v-88.936c0-4.525,3.917-8.194,8.749-8.194h8.363
										c3.413,0,6.514-1.858,7.944-4.76l1.797-3.646c1.43-2.902,4.531-4.76,7.944-4.76h39.697c3.094,0,5.958,1.531,7.533,4.026
										l1.95,3.09c1.574,2.495,4.438,4.026,7.533,4.026h50.605c4.832,0,8.749,3.669,8.749,8.194v90.962
										c0,5.65-4.581,10.231-10.231,10.231H176.191z"/>
								</g>
							</g>
						</g>
					</g>
				</g>
			</g>
		</g>
		<g>
			<g>
				<g>
					<g>
						<path style="fill:#FF725E;" d="M252.477,165.921c0,0-32.192-0.071-32.192-0.071l-2.876-5.378
							c-1.866-3.489-5.675-5.692-9.841-5.692h-31.467c-5.601,0-10.141,4.252-10.141,9.498v3.669v96.57
							c0,5.96,5.159,10.791,11.522,10.791h127.82c6.363,0,11.522-4.831,11.522-10.791V173.29c0-4.07-3.299-7.369-7.369-7.369
							H252.477z"/>
					</g>
				</g>
				<g>
					<g>
						<g>
							<g>
								<g>
									<path style="fill:#FFFFFF;" d="M268.713,241.881h-14.249c-0.557,0-1.008-0.451-1.008-1.008
										c0-0.557,0.451-1.008,1.008-1.008h14.249c7.817,0,14.177-6.36,14.177-14.177c0-7.52-5.887-13.73-13.401-14.138
										c-0.439-0.024-0.812-0.329-0.922-0.755c-2.583-10.011-11.6-17.002-21.929-17.002c-6.906,0-13.355,3.103-17.691,8.512
										c-0.217,0.27-0.56,0.414-0.902,0.371c-0.792-0.092-1.499-0.136-2.163-0.136c-10.291,0-18.663,8.372-18.663,18.663
										c0,10.29,8.372,18.662,18.663,18.662h11.549c0.557,0,1.008,0.451,1.008,1.008c0,0.557-0.451,1.008-1.008,1.008h-11.549
										c-11.402,0-20.679-9.276-20.679-20.678c0-11.402,9.277-20.679,20.679-20.679c0.582,0,1.189,0.03,1.843,0.091
										c4.714-5.624,11.576-8.838,18.913-8.838c11.007,0,20.646,7.289,23.69,17.816c8.232,0.816,14.579,7.749,14.579,16.094
										C284.906,234.617,277.642,241.881,268.713,241.881z"/>
								</g>
							</g>
						</g>
					</g>
					<g>
						<g>
							<line style="fill:#FF725E;" x1="245.673" y1="223.971" x2="245.673" y2="249.971"/>
						</g>
						<g>
							<path style="fill:#FFFFFF;" d="M245.673,250.978c-0.557,0-1.008-0.451-1.008-1.008v-25.999c0-0.557,0.451-1.008,1.008-1.008
								c0.557,0,1.008,0.451,1.008,1.008v25.999C246.681,250.527,246.23,250.978,245.673,250.978z"/>
						</g>
					</g>
					<g>
						<g>
							<path style="fill:#FFFFFF;" d="M253.27,234.351c-0.308,0-0.611-0.14-0.809-0.405l-6.625-8.878
								c-0.056-0.073-0.109-0.075-0.194-0.09c-0.056,0-0.133,0.017-0.195,0.093l-7.031,8.633c-0.351,0.433-0.986,0.497-1.418,0.145
								c-0.432-0.351-0.497-0.986-0.145-1.418l7.03-8.632c0.439-0.542,1.094-0.832,1.793-0.837c0.699,0.01,1.344,0.335,1.768,0.89
								l6.632,8.887c0.333,0.446,0.241,1.078-0.205,1.41C253.691,234.286,253.48,234.351,253.27,234.351z"/>
						</g>
					</g>
				</g>
			</g>
		</g>
	</g>
</g>
<g id="Progress">
	<g>
		<g>
			<g>
				<path style="fill:#263238;" d="M226.16,296.384V291.9h0.827v4.45c0,1.856,0.872,2.706,2.393,2.706
					c1.532,0,2.404-0.849,2.404-2.706v-4.45h0.805v4.484c0,2.247-1.208,3.41-3.209,3.41
					C227.378,299.794,226.16,298.632,226.16,296.384z"/>
			</g>
			<g>
				<path style="fill:#263238;" d="M240.87,296.786c0,1.789-1.252,2.997-2.929,2.997c-0.939,0-1.744-0.403-2.236-1.164v3.277h-0.794
					v-8.051h0.76v1.163c0.481-0.783,1.297-1.207,2.27-1.207C239.618,293.802,240.87,295.008,240.87,296.786z M240.076,296.786
					c0-1.363-0.95-2.292-2.192-2.292c-1.252,0-2.191,0.928-2.191,2.292c0,1.376,0.939,2.292,2.191,2.292
					C239.125,299.078,240.076,298.162,240.076,296.786z"/>
			</g>
			<g>
				<path style="fill:#263238;" d="M242.487,291.43h0.794v8.297h-0.794V291.43z"/>
			</g>
			<g>
				<path style="fill:#263238;" d="M244.901,296.786c0-1.744,1.275-2.984,2.997-2.984c1.722,0,2.985,1.24,2.985,2.984
					c0,1.745-1.264,2.997-2.985,2.997C246.176,299.783,244.901,298.531,244.901,296.786z M250.078,296.786
					c0-1.375-0.928-2.292-2.18-2.292c-1.253,0-2.192,0.916-2.192,2.292c0,1.376,0.939,2.292,2.192,2.292
					C249.15,299.078,250.078,298.162,250.078,296.786z"/>
			</g>
			<g>
				<path style="fill:#263238;" d="M256.907,296.082v3.645h-0.76v-0.916c-0.358,0.603-1.051,0.973-2.024,0.973
					c-1.331,0-2.147-0.693-2.147-1.711c0-0.906,0.581-1.667,2.269-1.667h1.867v-0.357c0-1.007-0.57-1.554-1.666-1.554
					c-0.76,0-1.476,0.268-1.956,0.693l-0.358-0.593c0.592-0.503,1.465-0.793,2.392-0.793
					C256.046,293.802,256.907,294.561,256.907,296.082z M256.113,297.96v-0.962h-1.845c-1.14,0-1.509,0.448-1.509,1.051
					c0,0.682,0.548,1.107,1.487,1.107C255.14,299.157,255.8,298.732,256.113,297.96z"/>
			</g>
			<g>
				<path style="fill:#263238;" d="M264.451,291.43v8.297h-0.761v-1.163c-0.48,0.793-1.296,1.219-2.27,1.219
					c-1.676,0-2.929-1.219-2.929-2.997c0-1.778,1.253-2.984,2.929-2.984c0.94,0,1.745,0.402,2.236,1.162v-3.534H264.451z
					 M263.669,296.786c0-1.375-0.94-2.292-2.18-2.292c-1.253,0-2.192,0.916-2.192,2.292c0,1.376,0.939,2.292,2.192,2.292
					C262.729,299.078,263.669,298.162,263.669,296.786z"/>
			</g>
			<g>
				<path style="fill:#263238;" d="M266.147,299.168c0-0.346,0.268-0.603,0.593-0.603c0.325,0,0.603,0.257,0.603,0.603
					s-0.279,0.615-0.603,0.615C266.415,299.783,266.147,299.514,266.147,299.168z"/>
			</g>
			<g>
				<path style="fill:#263238;" d="M268.516,299.168c0-0.346,0.269-0.603,0.593-0.603c0.325,0,0.604,0.257,0.604,0.603
					s-0.28,0.615-0.604,0.615C268.785,299.783,268.516,299.514,268.516,299.168z"/>
			</g>
			<g>
				<path style="fill:#263238;" d="M270.886,299.168c0-0.346,0.269-0.603,0.592-0.603c0.325,0,0.603,0.257,0.603,0.603
					s-0.279,0.615-0.603,0.615C271.154,299.783,270.886,299.514,270.886,299.168z"/>
			</g>
		</g>
		<g>
			<g>
				<g>
					<g>
						<path style="fill:#E0E0E0;" d="M321.811,328.301H165.846c-3.66,0-6.627-2.967-6.627-6.626v-1.935
							c0-3.66,2.967-6.627,6.627-6.627h155.964c3.66,0,6.626,2.967,6.626,6.627v1.935
							C328.437,325.334,325.47,328.301,321.811,328.301z"/>
					</g>
				</g>
				<g>
					<g>
						<path style="fill:#FF725E;" d="M237.202,328.301h-71.356c-3.66,0-6.627-2.967-6.627-6.626v-1.935
							c0-3.66,2.967-6.627,6.627-6.627h71.356c3.66,0,6.626,2.967,6.626,6.627v1.935
							C243.828,325.334,240.862,328.301,237.202,328.301z"/>
					</g>
				</g>
				<g style="opacity:0.3;">
					<g>
						<path style="fill:#FFFFFF;" d="M172.005,313.112l-9.006,14.286l1.414,0.632c0.4,0.179,0.831,0.271,1.265,0.271h2.864
							l9.779-15.188H172.005z"/>
					</g>
				</g>
				<g style="opacity:0.3;">
					<g>
						<polygon style="fill:#FFFFFF;" points="188.1,313.112 178.525,328.301 184.636,328.301 194.415,313.112 						"/>
					</g>
				</g>
				<g style="opacity:0.3;">
					<g>
						<polygon style="fill:#FFFFFF;" points="204.194,313.112 194.619,328.301 200.731,328.301 210.509,313.112 						"/>
					</g>
				</g>
				<g style="opacity:0.3;">
					<g>
						<polygon style="fill:#FFFFFF;" points="220.288,313.112 210.713,328.301 216.825,328.301 226.604,313.112 						"/>
					</g>
				</g>
				<g style="opacity:0.3;">
					<g>
						<path style="fill:#FFFFFF;" d="M236.382,313.112l-9.575,15.188h6.112l7.704-11.966l0.912-1.299
							C240.36,313.728,238.547,313.204,236.382,313.112z"/>
					</g>
				</g>
			</g>
			<g>
				<g>
					<g>
						<path style="fill:#263238;" d="M321.958,328.301c-0.001-0.02,0.314-0.01,0.915-0.097c0.596-0.084,1.5-0.294,2.509-0.917
							c1.005-0.599,2.107-1.683,2.731-3.294c0.314-0.804,0.454-1.727,0.434-2.725c-0.02-1.002,0.071-2.078-0.236-3.153
							c-0.53-2.142-2.44-4.28-5.141-4.761c-0.663-0.136-1.356-0.107-2.077-0.111c-0.717,0.002-1.449,0.004-2.195,0.005
							c-1.492,0.003-3.042,0.007-4.647,0.011c-6.424,0.012-13.736,0.025-21.817,0.039c-32.343,0.02-77.002,0.047-126.327,0.077
							c-1.484,0.007-2.95,0.528-4.09,1.465c-1.135,0.943-1.925,2.273-2.212,3.708c-0.151,0.715-0.116,1.454-0.123,2.222
							c-0.003,0.77-0.008,1.495,0.146,2.207c0.304,1.424,1.117,2.716,2.233,3.63c1.122,0.913,2.55,1.413,3.983,1.43
							c1.49,0.001,2.974,0.003,4.452,0.004c2.958,0.001,5.891,0.001,8.8,0.002c11.632,0.005,22.852,0.01,33.541,0.015
							c21.375,0.021,40.623,0.04,56.793,0.056c16.158,0.035,29.235,0.064,38.288,0.083c4.511,0.021,8.016,0.038,10.41,0.049
							c1.18,0.011,2.084,0.02,2.707,0.026C321.645,328.283,321.958,328.301,321.958,328.301s-0.313,0.018-0.922,0.027
							c-0.623,0.006-1.527,0.015-2.707,0.026c-2.393,0.011-5.899,0.028-10.41,0.049c-9.053,0.02-22.13,0.048-38.288,0.083
							c-16.17,0.016-35.419,0.035-56.793,0.056c-10.689,0.005-21.909,0.01-33.541,0.015c-2.908,0.001-5.842,0.001-8.8,0.002
							c-1.48-0.001-2.965-0.001-4.456-0.002c-1.548-0.017-3.095-0.559-4.308-1.545c-1.207-0.987-2.087-2.384-2.416-3.925
							c-0.168-0.771-0.161-1.572-0.158-2.317c0.007-0.746-0.032-1.54,0.132-2.323c0.31-1.554,1.165-2.994,2.393-4.012
							c1.232-1.014,2.821-1.58,4.424-1.586c49.325,0.03,93.984,0.057,126.327,0.077c8.081,0.014,15.393,0.027,21.817,0.039
							c1.605,0.004,3.155,0.007,4.647,0.011c0.746,0.002,1.478,0.004,2.195,0.005c0.71,0.007,1.433-0.019,2.123,0.126
							c2.802,0.516,4.762,2.742,5.293,4.955c0.308,1.119,0.206,2.213,0.219,3.205c0.013,1.006-0.14,1.965-0.469,2.781
							c-0.655,1.643-1.792,2.734-2.822,3.328c-1.034,0.617-1.953,0.812-2.556,0.88C322.272,328.327,321.958,328.301,321.958,328.301
							z"/>
					</g>
				</g>
			</g>
		</g>
	</g>
</g>
</svg>
